<svg width="79" height="79" viewBox="0 0 79 79" fill="none" xmlns="http://www.w3.org/2000/svg">
<rect x="2" y="2" width="75" height="75" fill="white"/>
<path d="M11.7127 20.6987H25.7163C28.4535 20.6987 30.8323 21.106 32.8526 21.9207C34.8729 22.7353 36.4288 23.941 37.5204 25.5377C38.6283 27.1343 39.1823 29.1058 39.1823 31.4519C39.1823 33.4885 38.8646 35.1911 38.2292 36.5597C37.5937 37.9283 36.7058 39.0606 35.5653 39.9567C34.4411 40.8365 33.1295 41.5616 31.6306 42.1318L28.8201 43.7203H17.0649L17.016 37.0973H25.7163C26.808 37.0973 27.7122 36.9018 28.4291 36.5108C29.146 36.1198 29.6836 35.5658 30.0421 34.849C30.4168 34.1158 30.6042 33.2441 30.6042 32.234C30.6042 31.2075 30.4168 30.3277 30.0421 29.5945C29.6673 28.8614 29.1134 28.2993 28.3802 27.9082C27.6633 27.5172 26.7754 27.3217 25.7163 27.3217H20.2909V56.282H11.7127V20.6987ZM31.1907 56.282L23.3213 40.5433L32.4127 40.4944L40.3798 55.9155V56.282H31.1907ZM67.8738 49.6835V56.282H49.8866V49.6835H67.8738ZM52.9415 20.6987V56.282H44.3634V20.6987H52.9415Z" fill="#23272F"/>
<rect x="2" y="2" width="75" height="75" stroke="#FBC701" stroke-width="4"/>
</svg>
