<svg width="26" height="26" viewBox="0 0 26 26" fill="none" xmlns="http://www.w3.org/2000/svg">
<g clip-path="url(#clip0_225_234)">
<path d="M16.2502 26C14.4296 25.9986 12.6296 25.6156 10.9663 24.8755C9.30293 24.1355 7.81323 23.0549 6.59333 21.7035C5.36422 20.3506 4.43687 18.7517 3.87281 17.013C3.30875 15.2743 3.12088 13.4356 3.32167 11.6188C3.64537 8.79127 4.87885 6.14546 6.83639 4.07967C8.79394 2.01389 11.3696 0.639931 14.1756 0.164667C15.9895 -0.115511 17.8407 -0.0400814 19.6258 0.38675C20.0933 0.506847 20.5201 0.749671 20.8622 1.09009C21.2043 1.43052 21.4493 1.85617 21.5717 2.32302C21.6941 2.78986 21.6895 3.28093 21.5584 3.74541C21.4274 4.2099 21.1746 4.63092 20.8262 4.96492C15.8862 9.47808 16.3152 16.4959 21.7004 20.5758C22.0812 20.8746 22.3749 21.27 22.551 21.7209C22.7271 22.1718 22.7792 22.6616 22.7017 23.1394C22.6243 23.6173 22.4202 24.0656 22.1108 24.4378C21.8013 24.81 21.3977 25.0924 20.9421 25.2558C19.4274 25.7506 17.8437 26.0018 16.2502 26ZM16.3325 2.16667C15.7243 2.1652 15.1168 2.21121 14.5157 2.30425C12.1796 2.69936 10.0349 3.84263 8.40468 5.56198C6.77443 7.28132 5.74678 9.4837 5.47642 11.8376C5.30742 13.3543 5.46316 14.8896 5.9333 16.3415C6.40344 17.7934 7.1772 19.1286 8.20317 20.2583C9.70503 21.8613 11.6398 22.994 13.7728 23.519C15.9057 24.0439 18.1452 23.9386 20.2195 23.2158C20.3089 23.1823 20.3879 23.1258 20.4484 23.052C20.5089 22.9781 20.5489 22.8896 20.5642 22.7953C20.5794 22.7011 20.5695 22.6044 20.5355 22.5153C20.5014 22.4261 20.4443 22.3475 20.3701 22.2874C13.947 17.4363 13.4367 8.76092 19.3431 3.38433C19.4109 3.32141 19.4597 3.24082 19.4842 3.15164C19.5087 3.06246 19.5079 2.96822 19.4818 2.8795C19.4592 2.78534 19.4114 2.69913 19.3434 2.6302C19.2755 2.56127 19.1899 2.51224 19.0961 2.48842C18.1912 2.27015 17.2633 2.16212 16.3325 2.16667Z" fill="black"/>
</g>
<defs>
<clipPath id="clip0_225_234">
<rect width="26" height="26" fill="white" transform="translate(0.000244141)"/>
</clipPath>
</defs>
</svg>
