<svg width="19" height="19" viewBox="0 0 19 19" fill="none" xmlns="http://www.w3.org/2000/svg">
<path fill-rule="evenodd" clip-rule="evenodd" d="M19.0002 8.999H17.0002C17.0002 4.943 14.0522 2 9.99023 2V0C15.1272 0 19.0002 3.869 19.0002 8.999ZM13.0003 9C13.0003 6.897 12.1033 6 10.0003 6V4C13.2253 4 15.0003 5.775 15.0003 9H13.0003ZM12.7181 11.1832C12.9776 11.1752 13.2301 11.2684 13.4223 11.443L17.4863 15.139C17.6788 15.3141 17.7954 15.5573 17.8115 15.8171C17.8276 16.0768 17.7417 16.3325 17.5723 16.53L15.7123 18.701C15.5396 18.8747 15.3088 18.9783 15.0643 18.992C15.0313 18.994 14.9073 19 14.7053 19C13.3233 19 8.30528 18.707 4.29928 14.702C-0.292718 10.108 -0.00671804 4.186 0.00828196 3.936C0.0222015 3.69145 0.125393 3.46052 0.298282 3.287L2.46828 1.426C2.66588 1.25666 2.92171 1.17102 3.18143 1.18726C3.44116 1.2035 3.68432 1.32036 3.85928 1.513L7.55428 5.576C7.72917 5.76804 7.82247 6.02059 7.81444 6.28021C7.80642 6.53982 7.69769 6.78613 7.51128 6.967L5.05228 9.361C5.15928 9.933 5.52028 11.094 6.71228 12.287C7.90428 13.476 9.06228 13.837 9.63828 13.947L12.0313 11.486C12.2123 11.2998 12.4585 11.1913 12.7181 11.1832Z" fill="#F9F9F9"/>
</svg>
