<svg width="19" height="20" viewBox="0 0 19 20" fill="none" xmlns="http://www.w3.org/2000/svg">
<path fill-rule="evenodd" clip-rule="evenodd" d="M19.0002 9.499H17.0002C17.0002 5.443 14.0522 2.5 9.99023 2.5V0.5C15.1272 0.5 19.0002 4.369 19.0002 9.499ZM13.0003 9.5C13.0003 7.397 12.1033 6.5 10.0003 6.5V4.5C13.2253 4.5 15.0003 6.275 15.0003 9.5H13.0003ZM12.7181 11.6832C12.9776 11.6752 13.2301 11.7684 13.4223 11.943L17.4863 15.639C17.6788 15.8141 17.7954 16.0573 17.8115 16.3171C17.8276 16.5768 17.7417 16.8325 17.5723 17.03L15.7123 19.201C15.5396 19.3747 15.3088 19.4783 15.0643 19.492C15.0313 19.494 14.9073 19.5 14.7053 19.5C13.3233 19.5 8.30528 19.207 4.29928 15.202C-0.292718 10.608 -0.00671805 4.686 0.00828195 4.436C0.0222015 4.19145 0.125393 3.96052 0.298282 3.787L2.46828 1.926C2.66588 1.75666 2.92171 1.67102 3.18143 1.68726C3.44116 1.7035 3.68432 1.82036 3.85928 2.013L7.55428 6.076C7.72917 6.26804 7.82247 6.52059 7.81444 6.78021C7.80642 7.03982 7.69769 7.28613 7.51128 7.467L5.05228 9.861C5.15928 10.433 5.52028 11.594 6.71228 12.787C7.90428 13.976 9.06228 14.337 9.63828 14.447L12.0313 11.986C12.2123 11.7998 12.4585 11.6913 12.7181 11.6832Z" fill="black"/>
</svg>
