<svg width="33" height="33" viewBox="0 0 33 33" fill="none" xmlns="http://www.w3.org/2000/svg">
<g clip-path="url(#clip0_225_204)">
<path d="M31.625 15.125H26.015C25.9079 14.3674 25.7098 13.6255 25.4251 12.9154L30.2747 10.1049C30.4368 10.0177 30.5797 9.89878 30.695 9.7553C30.8103 9.61181 30.8956 9.44665 30.9459 9.26959C30.9962 9.09253 31.0104 8.90717 30.9877 8.72452C30.965 8.54187 30.9058 8.36563 30.8138 8.20625C30.7217 8.04688 30.5986 7.90761 30.4517 7.79671C30.3048 7.6858 30.1371 7.60552 29.9586 7.56061C29.7801 7.51571 29.5944 7.5071 29.4125 7.53529C29.2306 7.56349 29.0563 7.62791 28.8997 7.72475L24.046 10.5394C23.582 9.95323 23.0519 9.42264 22.4661 8.95813L25.2794 4.103C25.4488 3.7882 25.4889 3.41979 25.3913 3.07589C25.2937 2.73199 25.0659 2.43963 24.7564 2.26081C24.4468 2.08198 24.0798 2.03074 23.7331 2.11796C23.3864 2.20517 23.0873 2.42399 22.8993 2.728L20.0846 7.57487C19.3746 7.28987 18.6326 7.09181 17.875 6.985V1.375C17.875 1.01033 17.7301 0.660591 17.4723 0.402728C17.2144 0.144866 16.8647 0 16.5 0C16.1353 0 15.7856 0.144866 15.5277 0.402728C15.2699 0.660591 15.125 1.01033 15.125 1.375V6.985C14.3674 7.09181 13.6254 7.28987 12.9154 7.57487L10.1049 2.72525C9.91679 2.42124 9.6177 2.20242 9.27101 2.11521C8.92432 2.02799 8.55729 2.07923 8.24775 2.25806C7.9382 2.43688 7.71046 2.72924 7.61283 3.07314C7.5152 3.41704 7.55534 3.78545 7.72475 4.10025L10.538 8.95813C9.95226 9.42264 9.42213 9.95323 8.95813 10.5394L4.10437 7.72475C3.94785 7.62791 3.77348 7.56349 3.59159 7.53529C3.4097 7.5071 3.22401 7.51571 3.04551 7.56061C2.86701 7.60552 2.69935 7.6858 2.55246 7.79671C2.40556 7.90761 2.28243 8.04688 2.19036 8.20625C2.09829 8.36563 2.03915 8.54187 2.01646 8.72452C1.99376 8.90717 2.00797 9.09253 2.05824 9.26959C2.1085 9.44665 2.19381 9.61181 2.30909 9.7553C2.42438 9.89878 2.5673 10.0177 2.72938 10.1049L7.57487 12.9154C7.29018 13.6255 7.09212 14.3674 6.985 15.125H1.375C1.01033 15.125 0.660591 15.2699 0.402728 15.5277C0.144866 15.7856 0 16.1353 0 16.5C0 16.8647 0.144866 17.2144 0.402728 17.4723C0.660591 17.7301 1.01033 17.875 1.375 17.875H6.985C7.09212 18.6326 7.29018 19.3745 7.57487 20.0846L2.72525 22.8951C2.56317 22.9823 2.42025 23.1012 2.30497 23.2447C2.18968 23.3882 2.10438 23.5534 2.05411 23.7304C2.00384 23.9075 1.98964 24.0928 2.01233 24.2755C2.03503 24.4581 2.09416 24.6344 2.18623 24.7937C2.27831 24.9531 2.40144 25.0924 2.54833 25.2033C2.69522 25.3142 2.86289 25.3945 3.04139 25.4394C3.21988 25.4843 3.40558 25.4929 3.58746 25.4647C3.76935 25.4365 3.94372 25.3721 4.10025 25.2752L8.954 22.4606C9.418 23.0468 9.94814 23.5774 10.5339 24.0419L7.72475 28.897C7.55534 29.2118 7.5152 29.5802 7.61283 29.9241C7.71046 30.268 7.9382 30.5604 8.24775 30.7392C8.55729 30.918 8.92432 30.9693 9.27101 30.882C9.6177 30.7948 9.91679 30.576 10.1049 30.272L12.9154 25.4224C13.6255 25.7077 14.3674 25.9067 15.125 26.015V31.625C15.125 31.9897 15.2699 32.3394 15.5277 32.5973C15.7856 32.8551 16.1353 33 16.5 33C16.8647 33 17.2144 32.8551 17.4723 32.5973C17.7301 32.3394 17.875 31.9897 17.875 31.625V26.015C18.6325 25.9076 19.3744 25.7095 20.0846 25.4251L22.8951 30.2747C23.0832 30.5788 23.3823 30.7976 23.729 30.8848C24.0757 30.972 24.4427 30.9208 24.7523 30.7419C25.0618 30.5631 25.2895 30.2708 25.3872 29.9269C25.4848 29.583 25.4447 29.2146 25.2752 28.8997L22.462 24.0446C23.0477 23.5801 23.5779 23.0495 24.0419 22.4634L28.8956 25.278C29.0521 25.3748 29.2265 25.4393 29.4084 25.4675C29.5903 25.4956 29.776 25.487 29.9545 25.4421C30.133 25.3972 30.3007 25.3169 30.4475 25.206C30.5944 25.0951 30.7176 24.9559 30.8096 24.7965C30.9017 24.6371 30.9608 24.4609 30.9835 24.2782C31.0062 24.0956 30.992 23.9102 30.9418 23.7332C30.8915 23.5561 30.8062 23.3909 30.6909 23.2475C30.5756 23.104 30.4327 22.9851 30.2706 22.8979L25.421 20.0874C25.7073 19.3765 25.9068 18.6337 26.015 17.875H31.625C31.9897 17.875 32.3394 17.7301 32.5973 17.4723C32.8551 17.2144 33 16.8647 33 16.5C33 16.1353 32.8551 15.7856 32.5973 15.5277C32.3394 15.2699 31.9897 15.125 31.625 15.125ZM16.5 23.375C7.414 23.0863 7.41675 9.91238 16.5 9.625C25.586 9.91375 25.5833 23.0876 16.5 23.375Z" fill="#F9F9F9"/>
</g>
<defs>
<clipPath id="clip0_225_204">
<rect width="33" height="33" fill="white"/>
</clipPath>
</defs>
</svg>
